<svg width="34" height="32" viewBox="0 0 34 32" fill="none" xmlns="http://www.w3.org/2000/svg">
<path d="M27.2 14.2222C27.2 12.5173 26.044 11.0916 24.5123 10.7484C25.1243 9.68 25.5 8.44444 25.5 7.11111C25.5 3.18933 22.4502 0 18.7 0C16.1211 0 13.9043 1.52356 12.75 3.74044C11.5957 1.52356 9.3789 0 6.8 0C3.0498 0 0 3.18933 0 7.11111C0 8.71467 0.5304 10.1813 1.3889 11.3707C0.9598 11.6988 0.61051 12.1279 0.36924 12.6232C0.127971 13.1186 0.00148573 13.6663 0 14.2222V28.4444C0 30.4053 1.5249 32 3.4 32H23.8C25.6751 32 27.2 30.4053 27.2 28.4444V23.7547L34 27.3102V14.8658L27.2 18.4213V14.2222ZM18.7 3.55556C20.5751 3.55556 22.1 5.15022 22.1 7.11111C22.1 9.072 20.5751 10.6667 18.7 10.6667C16.8249 10.6667 15.3 9.072 15.3 7.11111C15.3 5.15022 16.8249 3.55556 18.7 3.55556ZM6.8 3.55556C8.6751 3.55556 10.2 5.15022 10.2 7.11111C10.2 9.072 8.6751 10.6667 6.8 10.6667C4.9249 10.6667 3.4 9.072 3.4 7.11111C3.4 5.15022 4.9249 3.55556 6.8 3.55556ZM3.4 28.4444V14.2222H23.8L23.8034 28.4444H3.4Z" fill="#247BA0"/>
</svg>
