<svg width="34" height="32" viewBox="0 0 34 32" fill="none" xmlns="http://www.w3.org/2000/svg">
<path d="M27.1973 11.7855C28.5065 11.7849 29.7881 12.1589 30.8881 12.8625C31.9881 13.5662 32.8597 14.5696 33.3982 15.7523C33.9367 16.935 34.1192 18.2466 33.9239 19.5296C33.7285 20.8125 33.1635 22.0123 32.2968 22.9848V30.734C32.2972 30.9503 32.2416 31.1631 32.1353 31.352C32.029 31.541 31.8755 31.6996 31.6895 31.8129C31.5036 31.9262 31.2914 31.9903 31.0733 31.999C30.8552 32.0077 30.6385 31.9608 30.444 31.8627L30.291 31.7701L27.1973 29.6272L24.1036 31.7701C23.9249 31.8937 23.7173 31.9699 23.5005 31.9913C23.2836 32.0128 23.0649 31.9788 22.865 31.8927C22.6652 31.8065 22.491 31.671 22.3591 31.4991C22.2272 31.3273 22.1419 31.1247 22.1114 30.9109L22.0995 30.734V22.9814C21.234 22.009 20.6699 20.8096 20.4751 19.5274C20.2803 18.2451 20.4629 16.9343 21.0011 15.7524C21.5393 14.5704 22.4101 13.5674 23.5092 12.8638C24.6083 12.1602 25.8888 11.7858 27.1973 11.7855ZM29.747 24.7739C28.9369 25.0985 28.0711 25.265 27.1973 25.2641C26.3235 25.265 25.4577 25.0985 24.6476 24.7739V28.3099L26.4681 27.0515C26.6544 26.922 26.8724 26.8444 27.0993 26.8266C27.3261 26.8088 27.5537 26.8516 27.7582 26.9504L27.9282 27.0515L29.747 28.3099V24.7739ZM29.3221 5.70839e-09C30.5125 -5.85221e-05 31.658 0.449946 32.5251 1.25822C33.3921 2.0665 33.9154 3.17216 33.9881 4.34966L33.9966 4.63268L33.9983 13.4701C33.309 12.5606 32.4418 11.798 31.4486 11.2279L31.4469 4.63268C31.4471 4.11136 31.2522 3.60849 30.8999 3.22137C30.5476 2.83425 30.0629 2.59041 29.5397 2.53702L29.3221 2.52692H4.67454C4.14851 2.52668 3.64109 2.71982 3.25048 3.06898C2.85986 3.41813 2.61381 3.89847 2.55995 4.41705L2.54975 4.63268V20.6365C2.54975 21.7264 3.38606 22.6243 4.45696 22.7304L4.67454 22.7422L19.8404 22.7439L20.0495 23.0859L20.2773 23.4161L20.398 23.5744L20.3963 25.2691H4.67454C3.48389 25.2692 2.33811 24.8189 1.47099 24.0103C0.603883 23.2017 0.080804 22.0956 0.00849936 20.9178L5.75997e-09 20.6365V4.63268C-5.90508e-05 3.45297 0.454012 2.31767 1.26959 1.45837C2.08517 0.599068 3.20082 0.0804928 4.38896 0.00842325L4.67454 5.70839e-09H29.3221ZM27.1973 14.3124C26.07 14.3124 24.9889 14.7562 24.1918 15.5462C23.3947 16.3362 22.9469 17.4076 22.9469 18.5248C22.9469 19.642 23.3947 20.7134 24.1918 21.5034C24.9889 22.2934 26.07 22.7372 27.1973 22.7372C28.3246 22.7372 29.4057 22.2934 30.2028 21.5034C30.9999 20.7134 31.4477 19.642 31.4477 18.5248C31.4477 17.4076 30.9999 16.3362 30.2028 15.5462C29.4057 14.7562 28.3246 14.3124 27.1973 14.3124ZM15.7234 15.9971C16.0464 15.9972 16.3574 16.1188 16.5934 16.3373C16.8294 16.5558 16.9729 16.855 16.995 17.1744C17.017 17.4938 16.9158 17.8095 16.712 18.0578C16.5082 18.3062 16.2168 18.4685 15.8968 18.5122L15.7234 18.524H8.0742C7.75119 18.5239 7.44026 18.4023 7.20424 18.1837C6.96822 17.9652 6.8247 17.666 6.80268 17.3466C6.78066 17.0273 6.88179 16.7115 7.08563 16.4632C7.28947 16.2149 7.58082 16.0525 7.90081 16.0088L8.0742 15.9971H15.7234ZM25.9224 6.7317C26.2454 6.7318 26.5564 6.85341 26.7924 7.07195C27.0284 7.29049 27.1719 7.58967 27.1939 7.90904C27.216 8.22841 27.1148 8.54416 26.911 8.79248C26.7072 9.04081 26.4158 9.20319 26.0958 9.24682L25.9224 9.25862H8.0742C7.75119 9.25852 7.44026 9.13691 7.20424 8.91837C6.96822 8.69983 6.8247 8.40065 6.80268 8.08128C6.78066 7.76191 6.88179 7.44616 7.08563 7.19783C7.28947 6.94951 7.58082 6.78713 7.90081 6.74349L8.0742 6.7317H25.9224Z" fill="#247BA0"/>
</svg>
